HIERARCHY
ROOT Hips
{
	OFFSET -0.001795 -0.223333 0.028219
	CHANNELS 6 Xposition Yposition Zposition Zrotation Yrotation Xrotation 
	JOINT LeftUpLeg
	{
		OFFSET 0.069520 -0.091406 -0.006815
		CHANNELS 3 Zrotation Yrotation Xrotation
		JOINT LeftLeg
		{
			OFFSET 0.034277 -0.375199 -0.004496
			CHANNELS 3 Zrotation Yrotation Xrotation
			JOINT LeftFoot
			{
				OFFSET -0.013596 -0.397961 -0.043693
				CHANNELS 3 Zrotation Yrotation Xrotation
				JOINT LeftToe
				{
					OFFSET 0.026358 -0.055791 0.119288
					CHANNELS 3 Zrotation Yrotation Xrotation
					End Site
					{
						OFFSET 0.000000 0.000000 0.000000
					}
				}
			}
		}
	}
	JOINT RightUpLeg
	{
		OFFSET -0.067670 -0.090522 -0.004320
		CHANNELS 3 Zrotation Yrotation Xrotation
		JOINT RightLeg
		{
			OFFSET -0.038290 -0.382569 -0.008850
			CHANNELS 3 Zrotation Yrotation Xrotation
			JOINT RightFoot
			{
				OFFSET 0.015774 -0.398415 -0.042312
				CHANNELS 3 Zrotation Yrotation Xrotation
				JOINT RightToe
				{
					OFFSET -0.025372 -0.048144 0.123348
					CHANNELS 3 Zrotation Yrotation Xrotation
					End Site
					{
						OFFSET 0.000000 0.000000 0.000000
					}
				}
			}
		}
	}
	JOINT Spine
	{
		OFFSET -0.002533 0.108963 -0.026696
		CHANNELS 3 Zrotation Yrotation Xrotation
		JOINT Spine1
		{
			OFFSET 0.005487 0.135180 0.001092
			CHANNELS 3 Zrotation Yrotation Xrotation
			JOINT Spine2
			{
				OFFSET 0.001457 0.052922 0.025425
				CHANNELS 3 Zrotation Yrotation Xrotation
				JOINT Neck
				{
					OFFSET -0.002778 0.213870 -0.042857
					CHANNELS 3 Zrotation Yrotation Xrotation
					JOINT Head
					{
						OFFSET 0.005152 0.064970 0.051349
						CHANNELS 3 Zrotation Yrotation Xrotation
						End Site
						{
							OFFSET 0.000000 0.000000 0.000000
						}
					}
				}
				JOINT LeftShoulder
				{
					OFFSET 0.078845 0.121749 -0.034090
					CHANNELS 3 Zrotation Yrotation Xrotation
					JOINT LeftArm
					{
						OFFSET 0.090977 0.030469 -0.008868
						CHANNELS 3 Zrotation Yrotation Xrotation
						JOINT LeftForeArm
						{
							OFFSET 0.259612 -0.012772 -0.027456
							CHANNELS 3 Zrotation Yrotation Xrotation
							JOINT LeftHand
							{
								OFFSET 0.249234 0.008986 -0.001171
								CHANNELS 3 Zrotation Yrotation Xrotation
								End Site
								{
									OFFSET 0.000000 0.000000 0.000000
								}
							}
						}
					}
				}
				JOINT RightShoulder
				{
					OFFSET -0.081759 0.118833 -0.038615
					CHANNELS 3 Zrotation Yrotation Xrotation
					JOINT RightArm
					{
						OFFSET -0.096012 0.032551 -0.009143
						CHANNELS 3 Zrotation Yrotation Xrotation
						JOINT RightForeArm
						{
							OFFSET -0.253742 -0.013329 -0.021401
							CHANNELS 3 Zrotation Yrotation Xrotation
							JOINT RightHand
							{
								OFFSET -0.255298 0.007772 -0.005559
								CHANNELS 3 Zrotation Yrotation Xrotation
								End Site
								{
									OFFSET 0.000000 0.000000 0.000000
								}
							}
						}
					}
				}
			}
		}
	}
}
MOTION
Frames: 16
Frame Time: 0.050000
-0.029680 0.941465 -0.004811 -1.590740 -7.274711 6.770334 4.175010 -0.699191 -12.975449 0.316990 -0.142460 3.454387 -11.611876 -18.344486 8.456507 0.000000 0.000000 0.000000 -4.236106 0.466314 -3.796771 1.246869 -0.179404 -2.522294 -1.527703 -8.476780 11.185479 0.000000 0.000000 0.000000 -12.324426 1.882311 16.940460 -10.115379 6.147848 11.861459 -7.076721 -1.388437 -4.245158 -5.970410 4.409049 -8.578286 0.000000 0.000000 0.000000 -28.800190 -36.472977 22.838028 -24.326559 -30.213993 2.602990 -4.784038 -47.411102 4.137661 0.000000 0.000000 0.000000 -2.670422 34.765579 12.129997 37.014655 -4.408308 -4.055911 42.845515 60.820313 27.012260 0.000000 0.000000 0.000000 
-0.029267 0.941664 -0.004672 -1.610462 -6.438286 6.755755 3.802656 -0.749936 -12.932600 0.986388 -0.233956 3.167687 -12.042311 -18.938901 8.684927 0.000000 0.000000 0.000000 -4.098278 0.463661 -3.891189 1.273896 -0.174425 -2.171632 -2.085790 -9.503720 11.431632 0.000000 0.000000 0.000000 -12.455545 1.889834 17.157543 -9.547913 5.745136 11.883207 -7.554172 -0.362181 -4.196948 -5.672023 4.279234 -8.880044 0.000000 0.000000 0.000000 -28.892343 -37.099206 22.720178 -24.668290 -30.957043 2.917181 -5.083771 -46.210301 4.090836 0.000000 0.000000 0.000000 -2.740247 34.096378 11.987361 37.921840 -4.780317 -4.289544 42.295675 60.001900 26.596081 0.000000 0.000000 0.000000 
-0.028810 0.942143 -0.004684 -1.515052 -5.251698 6.804793 3.344780 -0.810580 -12.841672 1.589648 -0.294035 2.517728 -12.743741 -19.727041 9.288102 0.000000 0.000000 0.000000 -3.921180 0.452209 -3.872447 1.004569 -0.150532 -1.901829 -2.648321 -10.440644 11.502482 0.000000 0.000000 0.000000 -12.387611 1.863614 17.623489 -9.407329 5.552393 11.601160 -7.790221 0.378515 -3.863593 -5.408519 4.173667 -8.848609 0.000000 0.000000 0.000000 -29.052689 -37.603682 22.635238 -25.430739 -32.450096 3.444284 -5.130142 -44.056470 3.844407 0.000000 0.000000 0.000000 -2.797254 33.465987 11.830495 38.710032 -5.216615 -4.535103 41.672896 59.010328 25.981250 0.000000 0.000000 0.000000 
-0.028374 0.942522 -0.004816 -1.511886 -4.155666 6.971741 3.121115 -0.863964 -13.108079 1.958964 -0.333237 2.307346 -13.379334 -20.441200 9.812712 0.000000 0.000000 0.000000 -3.800942 0.458374 -4.061216 0.860196 -0.143019 -1.939650 -3.087667 -11.363955 12.477336 0.000000 0.000000 0.000000 -12.537914 1.863675 17.805362 -8.870507 5.199350 12.048968 -8.228464 1.484340 -3.940807 -5.214465 4.114198 -8.594926 0.000000 0.000000 0.000000 -29.513036 -38.127400 22.452298 -25.654795 -33.344865 3.829258 -5.592516 -43.457144 3.899142 0.000000 0.000000 0.000000 -3.333721 33.248173 11.758966 39.471023 -5.095570 -4.585344 40.287966 58.256299 25.126255 0.000000 0.000000 0.000000 
-0.027953 0.943107 -0.004989 -1.521778 -3.512850 7.172191 2.961416 -0.905755 -13.391055 2.232737 -0.362788 2.198207 -13.786875 -20.812338 10.250239 0.000000 0.000000 0.000000 -3.590162 0.447721 -3.976883 0.787664 -0.143400 -2.093205 -3.524281 -12.056697 12.352725 0.000000 0.000000 0.000000 -12.175891 1.810375 18.354197 -8.948705 5.159895 11.571956 -8.620063 2.286429 -3.515789 -4.547088 3.731736 -8.201342 0.000000 0.000000 0.000000 -29.759257 -38.438971 22.280236 -26.493690 -34.018968 4.240873 -6.013710 -42.811474 3.944396 0.000000 0.000000 0.000000 -4.001718 33.175112 11.642869 40.045546 -4.500104 -4.484294 38.995338 57.830237 24.376071 0.000000 0.000000 0.000000 
-0.027594 0.943222 -0.005180 -1.447424 -2.479593 7.446525 2.558359 -0.970120 -13.557181 2.788014 -0.399213 1.613134 -14.411786 -21.475431 10.779211 0.000000 0.000000 0.000000 -3.443984 0.439898 -3.934596 0.639722 -0.143675 -2.399515 -4.067088 -12.968162 12.564251 0.000000 0.000000 0.000000 -12.014037 1.758591 18.663040 -8.670259 4.924032 11.558946 -9.034970 3.537294 -3.123218 -3.668322 3.247577 -8.187539 0.000000 0.000000 0.000000 -30.182129 -39.121427 22.167034 -27.186524 -33.963958 4.539325 -6.458425 -43.665149 4.112678 0.000000 0.000000 0.000000 -4.656371 33.272477 11.623607 40.809045 -4.117154 -4.438558 38.441295 57.731916 24.346191 0.000000 0.000000 0.000000 
-0.027293 0.943271 -0.005332 -1.319076 -1.505368 7.666712 2.312336 -1.026218 -13.837326 2.957106 -0.401629 1.358311 -15.011398 -22.087369 11.301849 0.000000 0.000000 0.000000 -3.318365 0.438109 -3.969513 0.332931 -0.122766 -2.448923 -4.484095 -13.631046 12.655995 0.000000 0.000000 0.000000 -11.576874 1.637558 18.808605 -8.591854 4.778978 11.061387 -9.346437 4.740334 -2.438631 -2.693738 2.673278 -7.772861 0.000000 0.000000 0.000000 -31.042798 -39.198055 21.752654 -28.266799 -32.985435 4.719526 -7.331958 -44.351747 4.430869 0.000000 0.000000 0.000000 -4.787262 33.533187 11.784151 40.750791 -3.387850 -4.205227 37.971361 58.224661 24.620108 0.000000 0.000000 0.000000 
-0.027230 0.943370 -0.005569 -1.194742 -0.751170 7.719146 2.062045 -1.065535 -13.917146 3.153876 -0.409128 1.140834 -15.494674 -22.564173 11.727808 0.000000 0.000000 0.000000 -3.455738 0.445951 -4.105646 0.336919 -0.122414 -2.416717 -4.760942 -14.148917 13.400164 0.000000 0.000000 0.000000 -11.225453 1.554002 19.242654 -8.534045 4.653488 10.328675 -9.681493 6.096393 -1.565770 -1.320668 1.924590 -8.277161 0.000000 0.000000 0.000000 -30.280002 -39.559904 21.029230 -29.901086 -32.352736 5.036253 -7.378724 -45.617068 4.429433 0.000000 0.000000 0.000000 -4.924716 33.417313 11.790862 40.760370 -2.460034 -3.913755 37.480556 58.849344 24.958358 0.000000 0.000000 0.000000 
-0.027268 0.943705 -0.005849 -1.046361 -0.201586 7.719974 1.913780 -1.079243 -13.812444 3.127356 -0.380167 0.753083 -15.917914 -22.858157 12.240086 0.000000 0.000000 0.000000 -3.540944 0.429192 -3.895487 0.165325 -0.114620 -2.565848 -4.728778 -14.036953 13.449973 0.000000 0.000000 0.000000 -10.801968 1.445889 19.371915 -8.448822 4.559166 10.079136 -9.725984 7.063215 -1.099734 -0.512894 1.452073 -8.168184 0.000000 0.000000 0.000000 -30.362253 -39.827163 20.718563 -30.860651 -30.821935 4.971487 -7.737921 -47.131504 4.619742 0.000000 0.000000 0.000000 -4.958707 33.721465 11.960065 40.938528 -1.612944 -3.654115 35.864978 59.969635 24.708310 0.000000 0.000000 0.000000 
-0.027327 0.943789 -0.006266 -0.962015 0.291978 7.952086 1.696854 -1.115648 -13.946587 3.365194 -0.378720 0.347443 -16.265036 -23.123805 12.627788 0.000000 0.000000 0.000000 -3.447373 0.442356 -4.106622 -0.116114 -0.095388 -2.645886 -4.933215 -14.388094 13.817666 0.000000 0.000000 0.000000 -10.327672 1.325019 19.256321 -8.221962 4.381284 9.778731 -9.982145 7.879616 -0.932535 0.528893 0.849445 -8.338414 0.000000 0.000000 0.000000 -30.656666 -39.839643 20.299379 -31.141013 -29.176083 4.751266 -9.548819 -48.470307 5.462732 0.000000 0.000000 0.000000 -4.108388 34.005439 12.448760 40.727188 -1.283927 -3.539388 33.565517 60.618099 23.709370 0.000000 0.000000 0.000000 
-0.027261 0.944232 -0.006697 -0.699470 0.102899 7.868551 1.362522 -1.111783 -13.544780 3.427385 -0.351064 -0.204616 -16.293441 -22.913755 12.929408 0.000000 0.000000 0.000000 -3.591234 0.450333 -4.210637 -0.457025 -0.057680 -2.399057 -4.826738 -14.222996 13.814120 0.000000 0.000000 0.000000 -10.228009 1.311220 19.256848 -7.845998 4.176158 9.755197 -10.178302 8.757956 -1.000261 1.488047 0.199963 -7.930235 0.000000 0.000000 0.000000 -30.858820 -40.332795 20.314679 -31.214946 -27.797695 4.545818 -10.484340 -48.715423 5.826042 0.000000 0.000000 0.000000 -3.107831 33.924169 12.840474 40.986967 -1.122137 -3.520160 30.745553 60.955125 22.178412 0.000000 0.000000 0.000000 
-0.026945 0.944647 -0.007029 -0.640814 -0.408978 7.941516 1.106171 -1.088881 -13.050415 3.732137 -0.323883 -1.125600 -16.120081 -22.497915 13.084543 0.000000 0.000000 0.000000 -3.723479 0.477822 -4.552019 -0.458080 -0.053570 -2.295126 -4.711074 -14.121893 14.146780 0.000000 0.000000 0.000000 -9.863219 1.252034 19.012336 -7.656152 4.081431 9.567297 -10.233088 8.825239 -1.025692 1.717096 0.075556 -8.140780 0.000000 0.000000 0.000000 -30.752833 -40.280067 20.298016 -31.582933 -26.802314 4.352632 -11.259330 -48.804655 6.184757 0.000000 0.000000 0.000000 -1.745893 34.435901 13.532098 41.064217 -0.828200 -3.493404 27.223332 62.285124 20.456596 0.000000 0.000000 0.000000 
-0.026542 0.945204 -0.007275 -0.597835 -1.562456 7.748177 1.010778 -1.020714 -12.228455 3.757668 -0.279078 -1.928531 -15.576090 -21.670967 13.000130 0.000000 0.000000 0.000000 -3.735989 0.496070 -4.754463 -0.502954 -0.051019 -2.294573 -4.751492 -14.401736 14.695134 0.000000 0.000000 0.000000 -9.798718 1.288485 19.024831 -7.307182 3.944418 9.635558 -10.319167 8.873412 -1.331700 2.215190 -0.280888 -8.112321 0.000000 0.000000 0.000000 -31.234802 -40.657596 20.913745 -31.275560 -26.119633 4.120779 -11.333714 -47.849183 6.159962 0.000000 0.000000 0.000000 -0.374562 34.283986 13.925215 41.357209 -0.743855 -3.539837 22.488724 63.198466 17.743366 0.000000 0.000000 0.000000 
-0.026004 0.945350 -0.007374 -0.530663 -2.962096 7.665007 1.117735 -0.930795 -11.305473 3.362084 -0.178296 -3.056585 -14.909593 -20.666567 12.915078 0.000000 0.000000 0.000000 -3.892257 0.524233 -5.045584 -0.528024 -0.042904 -2.123844 -4.385394 -13.914995 14.502151 0.000000 0.000000 0.000000 -9.563146 1.288161 18.713904 -7.036149 3.835202 9.327717 -10.158496 8.402679 -1.378293 2.106256 -0.212927 -8.447420 0.000000 0.000000 0.000000 -31.238076 -40.762417 21.548298 -31.504016 -25.372562 3.835360 -10.714326 -46.977234 5.887249 0.000000 0.000000 0.000000 2.051999 34.844148 14.918719 40.934197 -0.547686 -3.563025 16.239762 64.636582 14.023182 0.000000 0.000000 0.000000 
-0.025413 0.945189 -0.007299 -0.670715 -4.968096 7.501724 1.447682 -0.860483 -10.880032 2.961863 -0.162789 -2.930594 -13.712800 -19.368843 12.073370 0.000000 0.000000 0.000000 -3.968362 0.568500 -5.547157 -0.239197 -0.051931 -1.778110 -4.055915 -13.593973 14.481079 0.000000 0.000000 0.000000 -9.435845 1.331918 18.446484 -6.442251 3.604473 9.568773 -10.433504 7.973231 -2.045698 2.453226 -0.465582 -8.714660 0.000000 0.000000 0.000000 -31.307190 -40.457628 21.857788 -31.496201 -24.699808 3.571132 -9.753007 -46.101225 5.463943 0.000000 0.000000 0.000000 4.481915 34.873325 15.669262 41.102535 -0.310226 -3.571215 9.312253 66.200795 9.786874 0.000000 0.000000 0.000000 
-0.024554 0.944527 -0.006989 -0.743880 -6.903499 7.446392 1.556674 -0.779877 -10.018853 2.770058 -0.103729 -3.790072 -12.646980 -18.095057 11.465781 0.000000 0.000000 0.000000 -3.996279 0.621576 -6.165519 -0.425123 -0.020643 -1.352353 -3.412774 -12.711820 14.338583 0.000000 0.000000 0.000000 -9.022683 1.287077 17.798295 -6.395645 3.678155 9.663691 -10.006166 6.990825 -2.286332 2.062601 -0.319430 -8.681880 0.000000 0.000000 0.000000 -31.150402 -40.688140 22.927236 -31.755730 -23.943947 3.188630 -7.613068 -46.062499 4.706239 0.000000 0.000000 0.000000 7.227671 35.342044 16.559812 41.343420 -0.320938 -3.649996 1.887766 68.746588 4.961972 0.000000 0.000000 0.000000 
